<svg width="24" height="24" viewBox="0 0 24 24" xmlns="http://www.w3.org/2000/svg">
  <g id="svgGroup" stroke-linecap="round" fill-rule="evenodd" font-size="9pt" stroke="#000000" stroke-width="0.25mm" fill="#000000" style="stroke:#000000;stroke-width:0.25mm;fill:#000000">
    <!-- 外圈圆形 -->
    <circle cx="12" cy="12" r="10" fill="none" stroke="#000000" stroke-width="0.5"/>
    
    <!-- 原有的"数"汉字，调整位置使其居中于圆圈内 -->
    <path transform="translate(1.5, 1.5) scale(0.8)" d="M 1.254 21.605 L 0.942 21.629 Q 0.534 21.629 0.366 21.317 Q 0.27 21.149 0.27 21.029 Q 0.27 20.693 0.894 20.573 Q 3.774 19.901 5.382 18.557 Q 4.134 17.909 2.478 17.213 Q 2.334 17.453 2.286 17.573 Q 2.118 17.861 1.854 17.861 Q 1.734 17.861 1.59 17.789 Q 1.206 17.645 1.206 17.381 Q 1.206 17.261 1.278 17.141 Q 2.19 15.533 2.91 13.997 L 0.51 13.997 Q 0.006 13.997 0.006 13.469 Q 0.006 12.965 0.51 12.965 L 3.438 12.965 L 4.254 11.237 Q 4.446 10.805 4.878 10.805 Q 5.022 10.805 5.19 10.853 L 5.19 6.773 Q 3.486 9.149 1.062 10.613 Q 0.894 10.709 0.75 10.709 Q 0.486 10.709 0.342 10.481 Q 0.198 10.253 0.198 10.085 Q 0.198 9.845 0.51 9.677 Q 1.734 9.005 2.91 7.925 Q 4.086 6.845 4.854 5.669 L 0.582 5.669 Q 0.078 5.669 0.078 5.165 Q 0.078 4.661 0.582 4.661 L 5.19 4.661 L 5.19 0.557 Q 5.19 0.005 5.742 0.005 Q 6.294 0.005 6.294 0.557 L 6.294 4.661 L 10.854 4.661 Q 11.358 4.661 11.358 5.165 Q 11.358 5.669 10.854 5.669 L 6.294 5.669 L 6.294 6.029 Q 8.046 7.109 10.398 8.765 Q 10.566 8.885 10.566 9.005 Q 10.566 9.173 10.326 9.413 Q 10.11 9.701 9.99 9.701 Q 9.87 9.701 9.726 9.581 Q 8.454 8.549 6.294 7.013 L 6.294 10.301 Q 6.294 10.949 5.574 10.949 Q 5.478 11.189 5.238 11.669 L 4.638 12.965 L 10.95 12.965 Q 11.454 12.965 11.454 13.469 Q 11.454 13.997 10.95 13.997 L 9.198 13.997 Q 8.694 16.637 7.206 18.341 Q 9.918 19.757 9.966 20.285 Q 9.966 20.525 9.726 20.765 Q 13.47 18.917 15.606 15.557 Q 14.07 12.389 13.11 7.685 Q 12.342 9.581 11.382 11.045 Q 11.166 11.309 10.926 11.309 Q 10.758 11.309 10.542 11.165 Q 10.23 10.949 10.23 10.709 Q 10.23 10.541 10.35 10.373 A 21.17 21.17 0 0 0 13.384 3.253 A 40.155 40.155 0 0 0 13.95 0.629 Q 14.046 0.053 14.502 0.053 Q 15.126 0.053 15.126 0.605 Q 15.126 1.013 14.238 4.493 L 21.006 4.493 Q 21.534 4.493 21.534 5.021 Q 21.534 5.573 21.006 5.573 L 20.022 5.573 A 32.602 32.602 0 0 1 17.805 13.809 A 17.842 17.842 0 0 1 16.878 15.629 Q 18.606 18.821 21.078 20.429 Q 21.462 20.645 21.462 20.885 Q 21.462 21.077 21.258 21.329 Q 21.054 21.581 20.814 21.581 Q 20.622 21.581 20.406 21.461 Q 17.958 19.877 16.206 16.733 Q 14.286 19.493 11.286 21.293 Q 10.926 21.485 10.638 21.485 Q 10.134 21.485 9.774 20.957 L 9.654 20.837 Q 9.462 21.053 9.438 21.053 L 9.39 21.029 Q 8.166 20.093 6.438 19.109 Q 4.614 20.741 1.254 21.605 Z M 18.87 5.573 L 13.902 5.573 L 13.83 5.765 A 35.242 35.242 0 0 0 16.083 13.945 A 21.259 21.259 0 0 0 16.278 14.381 A 26.455 26.455 0 0 0 18.579 7.237 A 47.619 47.619 0 0 0 18.87 5.573 Z M 8.046 13.997 L 4.134 13.997 L 2.934 16.349 Q 4.47 16.949 6.198 17.813 Q 7.494 16.397 8.046 13.997 Z M 8.334 4.205 Q 8.214 4.205 8.07 4.133 Q 7.758 3.989 7.758 3.773 Q 7.758 3.653 7.854 3.533 Q 8.79 2.165 9.318 1.061 Q 9.486 0.749 9.75 0.749 Q 9.894 0.749 10.062 0.821 Q 10.374 0.989 10.374 1.253 A 5.432 5.432 0 0 1 9.541 2.731 A 36.27 36.27 0 0 1 9.486 2.813 Q 8.838 3.797 8.682 4.001 Q 8.526 4.205 8.334 4.205 Z M 2.934 4.133 Q 2.67 4.133 2.55 3.821 Q 2.094 2.573 1.446 1.541 Q 1.326 1.373 1.326 1.229 Q 1.326 1.013 1.662 0.869 Q 1.782 0.821 1.902 0.821 Q 2.118 0.821 2.286 1.037 Q 3.174 2.429 3.558 3.485 Q 3.582 3.557 3.582 3.653 Q 3.582 3.917 3.246 4.061 Q 3.078 4.133 2.934 4.133 Z"/>
  </g>
</svg>