<!-- loading-a-tech-book.svg -->
<svg class="loading-a" xmlns="http://www.w3.org/2000/svg" viewBox="0 0 160 160" width="160" height="160" role="img" aria-hidden="true">
  <defs>
    <linearGradient id="gA" x1="0" x2="1" y1="0" y2="1">
      <stop offset="0" stop-color="#29d8ff"/>
      <stop offset="1" stop-color="#3b63ff"/>
    </linearGradient>
    <filter id="soft" x="-20%" y="-20%" width="140%" height="140%">
      <feGaussianBlur stdDeviation="2" result="b"/>
      <feBlend in="SourceGraphic" in2="b"/>
    </filter>
  </defs>

  <!-- 书本底形 -->
  <g class="book" fill="none" stroke="url(#gA)" stroke-width="6" stroke-linecap="round" stroke-linejoin="round" filter="none">
    <path d="M20 110 C45 90, 65 90, 80 110 C95 90,115 90,140 110" stroke-opacity="0.95"/>
    <path d="M20 110 L20 40 C45 30,75 30,80 40 C85 30,115 30,140 40 L140 110" stroke-opacity="0.75"/>
  </g>

  <!-- 中央电路干/支 -->
  <g class="circuit" stroke="url(#gA)" stroke-width="6" stroke-linecap="round" stroke-linejoin="round" fill="none">
    <path class="trunk" d="M80 110 L80 60" />
    <path class="branch left" d="M80 85 L60 70" />
    <path class="branch right" d="M80 85 L100 70" />
    <circle class="node trunk-node" cx="80" cy="52" r="6" fill="url(#gA)"/>
    <circle class="node left-node" cx="60" cy="66" r="5" fill="url(#gA)"/>
    <circle class="node right-node" cx="100" cy="66" r="5" fill="url(#gA)"/>
  </g>
</svg>
